# xmcd
#
# Track frame offsets:
# 150
# 5263
# 33080
# 65476
# 98951
# 139851
# 176820
# 235245
# 282643
# 323550
#
# Disc length: 4655 seconds
#
# Revision: 0
# Processed by: cddbd v1.4PL0 Copyright (c) Steve Scherf et al.
# Submitted via: Audion 3.0.2 (http://www.panic.com/audion/)
#
DISCID=87122d0a
DTITLE=Dave Eggers - Ein herzzereissendes Werk von umwerfender genialitaet
DYEAR=1900
DGENRE=
TTITLE0=CD_02_Track_01
TTITLE1=CD_02_Track_02
TTITLE2=CD_02_Track_03
TTITLE3=CD_02_Track_04
TTITLE4=CD_02_Track_05
TTITLE5=CD_02_Track_06
TTITLE6=CD_02_Track_07
TTITLE7=CD_02_Track_08
TTITLE8=CD_02_Track_09
TTITLE9=CD_02_Track_10
EXTD=
EXTT0=
EXTT1=
EXTT2=
EXTT3=
EXTT4=
EXTT5=
EXTT6=
EXTT7=
EXTT8=
EXTT9=
PLAYORDER=
